<svg xmlns="http://www.w3.org/2000/svg" viewBox="0 0 790.36 609.45"><defs><style>.cls-1{fill:#48444b;}.cls-1,.cls-2,.cls-3,.cls-4{fill-rule:evenodd;}.cls-2{fill:#8a8691;}.cls-3{fill:#f6f6f7;}.cls-4{fill:#e2e1e4;}</style></defs><g id="cdr_layer2"><path class="cls-1" d="M964.53,768.46c-18.86-1-47.25-18.31-63.44-22,3.81,8,14.1,13.09,26.67,16.57C937.48,765.64,955.39,769.76,964.53,768.46Zm-106.49-7c-31.25-.76-46.87-13.6-73.35-24-17.9-7.07-61.72-18.42-81-5.18,34.48,3.25,48.58,1,80.2,14.95C805.65,756.69,833.46,768.8,858,761.43ZM886.42,739c-41.53-28.42-29.53,6.61-84.58-14.73-23.43-9.06-66.49-19.81-90.11-5.16,40.2-2.59,45.91-4.15,81.73,11.72,19.24,8.51,46.48,26.91,70.67,24.53,5-2.85,5.91-6.91,10.1-10.07,3.62-2.82,1.52-1,5.91-3.11,1.52-.7,2.28-1,3.81-1.77Zm-114.3-85.14c-8.19,18-9,11.28-26.86,17.78-20.77,7.5-83.25,30.31-90.49,44.92,68.39-38.39,146.12-13.55,161-33.51Zm269-95.84c-13.52.17-27.24,1.31-40.77,1.31-45,0-77.15-8.09-110.49-9.94,2.86,2.32.76,1.28,5.15,3.2a22.53,22.53,0,0,0,5,1.33l63.63,7.61C973.48,561.86,1032,564.26,1041.11,558Zm32.77,170.22c-79.25,0-55.25-5.47-111.45-34.89a251.11,251.11,0,0,0-53.91-21c-37.15-9.66-12.57-20-33.91-38.67-12.19-10.67-33-18.27-52.58-22.27-16.76-3.37-16.95-3.36-13.52-21.49,13.33-68.14,57.91-106.93,63.24-120.17-23.24,13.58-51.81,49.45-66.48,79.23-25.91,52-3.24,68.22,23.05,95.79,43.24,45.14,89.35,56.5,142.12,76.73,20.76,8,34.67,24.21,48.19,24.23,95.06.17,93.35,5.77,173.36,28.65,30.48,8.71,53.72,9.34,82.68-1.46,11-4.1,62.1,7.85,82.68,7.2-9.53-2.9-25.72-5.16-37.53-8.38-9-2.39-26.1-9.55-33.15-10.79-15.05-2.63-34.1,17.91-73.72,6.12C1165.13,753,1131.79,728.21,1073.88,728.25ZM726.21,529.38c10.1-11.64-2.67-18.88,29.72-37.3,24.57-13.93,11.81.09,42.1-25.34,33-27.58,65.91-26.92,97.73-35.26-51.06-1.24-75.82,3.18-108,28.9-13.33,10.7-26.29,16.34-41.53,25.75C729.64,496.29,720.11,502.67,726.21,529.38ZM940,463.86c42.68.27,97.73-11,139.26-19.16,13.15-2.61,109.16-25.51,122.5-37.78-15.81,2.27-47.63,13.09-64,18C1099.41,436.24,940,463.83,940,463.86ZM855.75,347.2c-6.48-3.72-10.86-1-17.91-.44-7.43,17.07-9.14,9.09-5.14,17.64-6.67.74-4-.78-4.38,8.5-8.38-.48-17.53-2.61-13.34,10.29,7,22.93,37,25.89,58.68,22.51-20.38-8.49-34.48,1-45.72-21.58,6.28-5.83,16.76-7.2,24.76-10L851,360.55c4.38-1.9,6.86-4.45,10.48-8.7Zm77.73,5.91c-9.53-20-45.72-34.26-69.54-15.59,3,7.49,8.19,6.73,11.24,18a3.92,3.92,0,0,0,.38-1.23,3.47,3.47,0,0,1,.38-1.26c.58-4.12-4.76-15.59,24.39-14.65C921.09,339.06,919.19,346.23,933.48,353.11Zm8.19,75.42c39.62,0,150.5-35,189-48.28C1167,367.7,1272,322.76,1288,304.79c-6.29,6.27-58.68,30-77.73,38.35C1125.12,380.75,1030.25,402.64,941.67,428.53Zm253.94-90.91c42.48-16.39,91.25-41.38,125.92-63.75,69.35-44.84,81.92-76.41,98.69-88.77,3,68.89-123.64,145.45-180,170.9-41.72,18.82-80.39,35.59-126.31,51-29.9,10.08-107.06,37.21-136.4,39.85,19.44,7.05,177-36.46,202.89-45.11a547.78,547.78,0,0,0,86.68-37.49c20.76-11.2,67.63-51,72-52.52-19.81,87.82-192.22,134.08-278.71,154.14-31.24,7.2-96.58,13.54-120.59,21.77,77.16-.38,182.51-13.16,253.56-42.77,28.2-11.79,43.06-26.38,63.25-36.31-15.24,65.17-169.36,93.39-236.41,101-20,2.29-94.49,3-103.83,9.41,98.3,4,185.74,6.86,260.23-37.2-3.24,31.81-86.68,53.41-128.59,58.23-66.3,7.66-118.11-1.84-180-1,24.2,7.73,88.21,14.13,117.54,15.41,53.16,2.26,72-3.79,116.21-17.83-17,29.3-77.15,36.34-121.73,35.45-52.39-1-130.3-17.68-139.83-17.37-8.57,11.35-15,26.8-13.14,44.67,24.57,13.12,50.1,10.17,63.62,35,8.58,15.47,0,23.4,20.39,28.64,51.81,13.35,59.44,27,100.58,47.15s42.3,4.15,81.92,8c46.67,4.48,118.3,46.52,153.36,43.07,17.14-1.69,27.62-13.92,36.57-13.35,2.67.15,25.91,11.87,35.25,14.61,22.48,6.63,63.82,7.18,68,28.21-33.53.46-67.25-1.65-100.59.76-32.19,2.33-65.53,5.62-97.73.82-29.91-4.45-59.25-10.57-89.54-14.59-39.24-5.2-65,4.61-97.72,1,10.66,8.21,11,12.58-1,12.08-97.72,5.62-178.5-5.18-274.13-10.36-33.53-1.81-106.49-2.23-94.87-45.51,6.47-23.91,52.77-48.56,81.34-61,65.73-28.52,60.58-8.58,25.15-66.11-24.2-39.3-21.34-44.31-22.1-79,0-3.91-1.9-9.68-2.1-14.39C711.73,462,835,470.63,806.79,384c-4.19-13.28,4.57-14.23,10.67-21.89,9.33-11.79,7.43-15.62,11.62-23,38.48-2.25,68.77-40.4,103.83,1.34,28.38,33.73,13.71,74.81-29.53,81C925.1,436.26,1163,350.13,1195.61,337.62Z" transform="translate(-629.91 -185.1)"/><path class="cls-2" d="M1073.88,728.25c57.91,0,91.25,24.7,139.07,38.86,39.62,11.79,58.67-8.75,73.72-6.12,7,1.24,24.2,8.4,33.15,10.79,11.81,3.22,28,5.48,37.53,8.38-20.58.65-71.63-11.3-82.68-7.2-29,10.8-52.2,10.17-82.68,1.46-80-22.88-78.3-28.48-173.36-28.65-13.52,0-27.43-16.25-48.19-24.23-52.77-20.23-98.88-31.59-142.12-76.73C802,617.24,779.36,601,805.27,549c14.67-29.78,43.24-65.65,66.48-79.23-5.33,13.24-49.91,52-63.24,120.17-3.43,18.13-3.24,18.12,13.52,21.49,19.62,4,40.39,11.6,52.58,22.27,21.34,18.69-3.24,29,33.91,38.67a251.11,251.11,0,0,1,53.91,21C1018.63,722.78,994.63,728.3,1073.88,728.25Z" transform="translate(-629.91 -185.1)"/><path class="cls-2" d="M815.75,683.06c-14.86,20-92.59-4.88-161,33.51,7.24-14.61,69.72-37.42,90.49-44.92,17.91-6.5,18.67.24,26.86-17.78Z" transform="translate(-629.91 -185.1)"/><path class="cls-3" d="M890,740.5c-12,1.08-16,5.5-23.62,14.78-24.38,3.18-53.91-15.45-73-24.44-35.82-15.87-41.53-14.31-81.73-11.72,23.62-14.65,66.68-3.9,90.11,5.16C856.89,743.68,848.51,709,890,740.5Z" transform="translate(-629.91 -185.1)"/><path class="cls-2" d="M941.67,428.53c88.58-25.89,183.45-47.78,268.61-85.39,19-8.34,71.44-32.08,77.73-38.35-16,18-121,62.91-157.36,75.46C1092.17,393.51,981.29,428.53,941.67,428.53Z" transform="translate(-629.91 -185.1)"/><path class="cls-2" d="M726.21,529.38c-6.1-26.71,3.43-33.09,20-43.25,15.24-9.41,28.2-15.05,41.53-25.75,32.2-25.72,57-30.14,108-28.9-31.82,8.34-64.77,7.68-97.73,35.26-30.29,25.43-17.53,11.41-42.1,25.34C723.54,510.5,736.31,517.74,726.21,529.38Z" transform="translate(-629.91 -185.1)"/><path class="cls-2" d="M940,463.86s159.46-27.62,197.75-39c16.38-4.88,48.2-15.7,64-18-13.34,12.27-109.35,35.17-122.5,37.78C1037.68,452.83,982.63,464.13,940,463.86Z" transform="translate(-629.91 -185.1)"/><path class="cls-2" d="M861.47,351.85c-3.62,4.25-6.1,6.8-10.48,8.7l1.71,13.59c-8,2.78-18.48,4.15-24.76,10,11.24,22.57,25.34,13.09,45.72,21.58-21.72,3.38-51.63.42-58.68-22.51-4.19-12.9,5-10.77,13.34-10.29.19-8.19-2.29-8.25,4.38-8.5-4-8.55-2.29-.57,5.14-17.64,7-.53,11.43-3.28,17.91.44Z" transform="translate(-629.91 -185.1)"/><path class="cls-2" d="M858,761.43c-24.58,7.37-52.39-4.74-74.11-14.25-31.62-13.94-45.72-11.7-80.2-14.95,19.24-13.24,63.06-1.89,81,5.18C811.17,747.83,826.79,760.67,858,761.43Z" transform="translate(-629.91 -185.1)"/><path class="cls-2" d="M933.48,353.11c-14.29-6.88-12.39-14.05-33.15-14.71-29.15-.94-23.81,10.53-24.39,14.65a3.47,3.47,0,0,0-.38,1.26,3.92,3.92,0,0,1-.38,1.23c-3-11.29-8.19-10.53-11.24-18C887.76,318.85,924,333.12,933.48,353.11Z" transform="translate(-629.91 -185.1)"/><path class="cls-2" d="M1041.11,558c-9.14,6.23-67.63,3.83-77.53,3.51L900,553.93a22.53,22.53,0,0,1-5-1.33c-4.39-1.92-2.29-.88-5.15-3.2,33.34,1.85,65.54,10,110.49,9.94C1013.87,559.34,1027.59,558.2,1041.11,558Z" transform="translate(-629.91 -185.1)"/><path class="cls-4" d="M964.53,768.46c-9.14,1.3-27-2.82-36.77-5.47-12.57-3.48-22.86-8.53-26.67-16.57C917.28,750.15,945.67,767.47,964.53,768.46Z" transform="translate(-629.91 -185.1)"/></g></svg>